ffmpeg started on 2025-06-05 at 19:04:32
Report written to "D:\Convert\FFMetrics\reports\psnr_report-6.txt"
Log level: 32
Command line:
ffmpeg -hide_banner -nostdin -i "G:\\\xc0\xed\xe8\xec\xe5\\\xce\xed\xe3\xee\xe8\xed\xe3\xe8\\!_36_\xce\xf1\xe5\xed\xfc_2024\\DreamCast\\\xca\xee\xec\xef\xe0\xed\xe8\xff \xab\xcc\xe0\xe3\xe8-\xcb\xfe\xec\xfc\xe5\xf0\xbb\\[DC] Kabushikigaisha Magilumiere - 04_Telegram_HEVC.mkv" -i "G:\\\xc0\xed\xe8\xec\xe5\\\xce\xed\xe3\xee\xe8\xed\xe3\xe8\\!_36_\xce\xf1\xe5\xed\xfc_2024\\DreamCast\\\xca\xee\xec\xef\xe0\xed\xe8\xff \xab\xcc\xe0\xe3\xe8-\xcb\xfe\xec\xfc\xe5\xf0\xbb\\[DC] Kabushikigaisha Magilumiere - 04_Telegram.mp4" -lavfi "[0:v]settb=AVTB,setpts=PTS-STARTPTS,format=pix_fmts=yuv420p10,fps=24000/1001,scale=1920:1080:flags=bicubic[main];[1:v]settb=AVTB,setpts=PTS-STARTPTS,format=pix_fmts=yuv420p,fps=24000/1001,scale=1920:1080:flags=bicubic[ref];[main][ref]psnr=eof_action=endall:stats_file='D\\:/Convert/FFMetrics/logs/psnr_logfile-6.txt'" -f null -
Input #0, matroska,webm, from 'G:\Аниме\Онгоинги\!_36_Осень_2024\DreamCast\Компания «Маги-Люмьер»\[DC] Kabushikigaisha Magilumiere - 04_Telegram_HEVC.mkv':
  Metadata:
    COMPATIBLE_BRANDS: isomiso2avc1mp41
    MAJOR_BRAND     : isom
    MINOR_VERSION   : 512
    ENCODER         : Lavf61.7.100
  Duration: 00:24:06.61, start: -0.021000, bitrate: 1821 kb/s
  Stream #0:0: Video: hevc (Main 10), yuv420p10le(tv, bt709, progressive), 1920x1080 [SAR 1:1 DAR 16:9], 23.98 fps, 23.98 tbr, 1k tbn (default)
      Metadata:
        HANDLER_NAME    : VideoHandler
        VENDOR_ID       : [0][0][0][0]
        ENCODER         : Lavc61.19.100 libx265
        BPS             : 1623951
        DURATION        : 00:24:06.486708333
        NUMBER_OF_FRAMES: 34681
        NUMBER_OF_BYTES : 293627842
        _STATISTICS_WRITING_APP: mkvpropedit v66.0.0 ('Josie') 64-bit
        _STATISTICS_WRITING_DATE_UTC: 2025-05-30 17:37:33
        _STATISTICS_TAGS: BPS DURATION NUMBER_OF_FRAMES NUMBER_OF_BYTES
  Stream #0:1: Audio: aac (LC), 48000 Hz, stereo, fltp (default)
      Metadata:
        HANDLER_NAME    : SoundHandler
        VENDOR_ID       : [0][0][0][0]
        ENCODER         : Lavc61.19.100 aac
        BPS             : 193966
        DURATION        : 00:24:06.613000000
        NUMBER_OF_FRAMES: 67811
        NUMBER_OF_BYTES : 35074378
        _STATISTICS_WRITING_APP: mkvpropedit v66.0.0 ('Josie') 64-bit
        _STATISTICS_WRITING_DATE_UTC: 2025-05-30 17:37:33
        _STATISTICS_TAGS: BPS DURATION NUMBER_OF_FRAMES NUMBER_OF_BYTES
Input #1, mov,mp4,m4a,3gp,3g2,mj2, from 'G:\Аниме\Онгоинги\!_36_Осень_2024\DreamCast\Компания «Маги-Люмьер»\[DC] Kabushikigaisha Magilumiere - 04_Telegram.mp4':
  Metadata:
    major_brand     : isom
    minor_version   : 512
    compatible_brands: isomiso2avc1mp41
    encoder         : Lavf61.1.100
  Duration: 00:24:06.55, start: 0.000000, bitrate: 3827 kb/s
  Stream #1:0[0x1](und): Video: h264 (High) (avc1 / 0x31637661), yuv420p(tv, bt709, progressive), 1920x1080 [SAR 1:1 DAR 16:9], 3679 kb/s, 23.98 fps, 23.98 tbr, 24k tbn (default)
      Metadata:
        handler_name    : VideoHandler
        vendor_id       : [0][0][0][0]
        encoder         : Lavc61.3.100 h264_qsv
  Stream #1:1[0x2](und): Audio: aac (HE-AACv2) (mp4a / 0x6134706D), 48000 Hz, stereo, fltp, 144 kb/s (default)
      Metadata:
        handler_name    : SoundHandler
        vendor_id       : [0][0][0][0]
Stream mapping:
  Stream #0:0 (hevc) -> settb:default
  Stream #1:0 (h264) -> settb:default
  psnr:default -> Stream #0:0 (wrapped_avframe)
  Stream #0:1 -> #0:1 (aac (native) -> pcm_s16le (native))
Output #0, null, to 'pipe:':
  Metadata:
    COMPATIBLE_BRANDS: isomiso2avc1mp41
    MAJOR_BRAND     : isom
    MINOR_VERSION   : 512
    encoder         : Lavf61.7.100
  Stream #0:0: Video: wrapped_avframe, yuv420p10le(tv, bt709, progressive), 1920x1080 [SAR 1:1 DAR 16:9], q=2-31, 200 kb/s, 23.98 fps, 23.98 tbn
      Metadata:
        encoder         : Lavc61.19.100 wrapped_avframe
  Stream #0:1: Audio: pcm_s16le, 48000 Hz, stereo, s16, 1536 kb/s (default)
      Metadata:
        HANDLER_NAME    : SoundHandler
        VENDOR_ID       : [0][0][0][0]
        _STATISTICS_TAGS: BPS DURATION NUMBER_OF_FRAMES NUMBER_OF_BYTES
        BPS             : 193966
        DURATION        : 00:24:06.613000000
        NUMBER_OF_FRAMES: 67811
        NUMBER_OF_BYTES : 35074378
        _STATISTICS_WRITING_APP: mkvpropedit v66.0.0 ('Josie') 64-bit
        _STATISTICS_WRITING_DATE_UTC: 2025-05-30 17:37:33
        encoder         : Lavc61.19.100 pcm_s16le
frame=  179 fps=0.0 q=-0.0 size=N/A time=00:00:07.46 bitrate=N/A speed=14.6x    frame=  410 fps=395 q=-0.0 size=N/A time=00:00:17.10 bitrate=N/A speed=16.5x    frame=  611 fps=392 q=-0.0 size=N/A time=00:00:25.48 bitrate=N/A speed=16.4x    frame=  804 fps=388 q=-0.0 size=N/A time=00:00:33.53 bitrate=N/A speed=16.2x    frame= 1019 fps=394 q=-0.0 size=N/A time=00:00:42.50 bitrate=N/A speed=16.4x    frame= 1186 fps=384 q=-0.0 size=N/A time=00:00:49.46 bitrate=N/A speed=  16x    frame= 1359 fps=376 q=-0.0 size=N/A time=00:00:56.68 bitrate=N/A speed=15.7x    frame= 1521 fps=369 q=-0.0 size=N/A time=00:01:03.43 bitrate=N/A speed=15.4x    frame= 1720 fps=370 q=-0.0 size=N/A time=00:01:11.73 bitrate=N/A speed=15.4x    frame= 1922 fps=372 q=-0.0 size=N/A time=00:01:20.16 bitrate=N/A speed=15.5x    frame= 2134 fps=376 q=-0.0 size=N/A time=00:01:29.00 bitrate=N/A speed=15.7x    frame= 2330 fps=376 q=-0.0 size=N/A time=00:01:37.18 bitrate=N/A speed=15.7x    frame= 2473 fps=369 q=-0.0 size=N/A time=00:01:43.14 bitrate=N/A speed=15.4x    frame= 2630 fps=364 q=-0.0 size=N/A time=00:01:49.69 bitrate=N/A speed=15.2x    frame= 2826 fps=365 q=-0.0 size=N/A time=00:01:57.86 bitrate=N/A speed=15.2x    frame= 3029 fps=367 q=-0.0 size=N/A time=00:02:06.33 bitrate=N/A speed=15.3x    frame= 3243 fps=370 q=-0.0 size=N/A time=00:02:15.26 bitrate=N/A speed=15.4x    frame= 3480 fps=375 q=-0.0 size=N/A time=00:02:25.14 bitrate=N/A speed=15.6x    frame= 3697 fps=378 q=-0.0 size=N/A time=00:02:34.19 bitrate=N/A speed=15.7x    frame= 3937 fps=382 q=-0.0 size=N/A time=00:02:44.20 bitrate=N/A speed=15.9x    frame= 4144 fps=383 q=-0.0 size=N/A time=00:02:52.83 bitrate=N/A speed=  16x    frame= 4363 fps=384 q=-0.0 size=N/A time=00:03:01.97 bitrate=N/A speed=  16x    frame= 4592 fps=387 q=-0.0 size=N/A time=00:03:11.52 bitrate=N/A speed=16.2x    frame= 4816 fps=389 q=-0.0 size=N/A time=00:03:20.86 bitrate=N/A speed=16.2x    frame= 5046 fps=391 q=-0.0 size=N/A time=00:03:30.46 bitrate=N/A speed=16.3x    frame= 5300 fps=395 q=-0.0 size=N/A time=00:03:41.05 bitrate=N/A speed=16.5x    frame= 5569 fps=400 q=-0.0 size=N/A time=00:03:52.27 bitrate=N/A speed=16.7x    frame= 5854 fps=405 q=-0.0 size=N/A time=00:04:04.16 bitrate=N/A speed=16.9x    frame= 6095 fps=408 q=-0.0 size=N/A time=00:04:14.21 bitrate=N/A speed=  17x    frame= 6344 fps=410 q=-0.0 size=N/A time=00:04:24.59 bitrate=N/A speed=17.1x    frame= 6583 fps=412 q=-0.0 size=N/A time=00:04:34.56 bitrate=N/A speed=17.2x    frame= 6837 fps=414 q=-0.0 size=N/A time=00:04:45.15 bitrate=N/A speed=17.3x    frame= 7093 fps=417 q=-0.0 size=N/A time=00:04:55.83 bitrate=N/A speed=17.4x    frame= 7336 fps=418 q=-0.0 size=N/A time=00:05:05.97 bitrate=N/A speed=17.5x    frame= 7574 fps=419 q=-0.0 size=N/A time=00:05:15.89 bitrate=N/A speed=17.5x    frame= 7775 fps=419 q=-0.0 size=N/A time=00:05:24.28 bitrate=N/A speed=17.5x    frame= 7994 fps=419 q=-0.0 size=N/A time=00:05:33.41 bitrate=N/A speed=17.5x    frame= 8171 fps=417 q=-0.0 size=N/A time=00:05:40.79 bitrate=N/A speed=17.4x    frame= 8411 fps=418 q=-0.0 size=N/A time=00:05:50.80 bitrate=N/A speed=17.4x    frame= 8632 fps=419 q=-0.0 size=N/A time=00:06:00.02 bitrate=N/A speed=17.5x    frame= 8880 fps=420 q=-0.0 size=N/A time=00:06:10.37 bitrate=N/A speed=17.5x    frame= 9104 fps=420 q=-0.0 size=N/A time=00:06:19.71 bitrate=N/A speed=17.5x    frame= 9300 fps=419 q=-0.0 size=N/A time=00:06:27.88 bitrate=N/A speed=17.5x    frame= 9499 fps=419 q=-0.0 size=N/A time=00:06:36.18 bitrate=N/A speed=17.5x    frame= 9724 fps=419 q=-0.0 size=N/A time=00:06:45.57 bitrate=N/A speed=17.5x    frame= 9891 fps=417 q=-0.0 size=N/A time=00:06:52.53 bitrate=N/A speed=17.4x    frame=10118 fps=417 q=-0.0 size=N/A time=00:07:02.00 bitrate=N/A speed=17.4x    frame=10349 fps=418 q=-0.0 size=N/A time=00:07:11.63 bitrate=N/A speed=17.4x    frame=10575 fps=418 q=-0.0 size=N/A time=00:07:21.06 bitrate=N/A speed=17.5x    frame=10783 fps=418 q=-0.0 size=N/A time=00:07:29.74 bitrate=N/A speed=17.4x    frame=11025 fps=419 q=-0.0 size=N/A time=00:07:39.83 bitrate=N/A speed=17.5x    frame=11257 fps=420 q=-0.0 size=N/A time=00:07:49.51 bitrate=N/A speed=17.5x    frame=11521 fps=421 q=-0.0 size=N/A time=00:08:00.52 bitrate=N/A speed=17.6x    frame=11765 fps=422 q=-0.0 size=N/A time=00:08:10.69 bitrate=N/A speed=17.6x    frame=12031 fps=424 q=-0.0 size=N/A time=00:08:21.79 bitrate=N/A speed=17.7x    frame=12279 fps=425 q=-0.0 size=N/A time=00:08:32.13 bitrate=N/A speed=17.7x    frame=12512 fps=425 q=-0.0 size=N/A time=00:08:41.85 bitrate=N/A speed=17.7x    frame=12775 fps=427 q=-0.0 size=N/A time=00:08:52.82 bitrate=N/A speed=17.8x    frame=13016 fps=428 q=-0.0 size=N/A time=00:09:02.87 bitrate=N/A speed=17.8x    frame=13280 fps=429 q=-0.0 size=N/A time=00:09:13.88 bitrate=N/A speed=17.9x    frame=13507 fps=429 q=-0.0 size=N/A time=00:09:23.35 bitrate=N/A speed=17.9x    frame=13711 fps=429 q=-0.0 size=N/A time=00:09:31.86 bitrate=N/A speed=17.9x    frame=13931 fps=429 q=-0.0 size=N/A time=00:09:41.03 bitrate=N/A speed=17.9x    frame=14189 fps=430 q=-0.0 size=N/A time=00:09:51.79 bitrate=N/A speed=17.9x    frame=14406 fps=429 q=-0.0 size=N/A time=00:10:00.85 bitrate=N/A speed=17.9x    frame=14625 fps=429 q=-0.0 size=N/A time=00:10:09.98 bitrate=N/A speed=17.9x    frame=14800 fps=428 q=-0.0 size=N/A time=00:10:17.28 bitrate=N/A speed=17.8x    frame=15026 fps=428 q=-0.0 size=N/A time=00:10:26.70 bitrate=N/A speed=17.9x    frame=15233 fps=428 q=-0.0 size=N/A time=00:10:35.34 bitrate=N/A speed=17.8x    frame=15444 fps=428 q=-0.0 size=N/A time=00:10:44.14 bitrate=N/A speed=17.8x    frame=15669 fps=428 q=-0.0 size=N/A time=00:10:53.52 bitrate=N/A speed=17.8x    frame=15908 fps=428 q=-0.0 size=N/A time=00:11:03.49 bitrate=N/A speed=17.9x    frame=16118 fps=428 q=-0.0 size=N/A time=00:11:12.25 bitrate=N/A speed=17.8x    frame=16283 fps=426 q=-0.0 size=N/A time=00:11:19.13 bitrate=N/A speed=17.8x    frame=16456 fps=425 q=-0.0 size=N/A time=00:11:26.35 bitrate=N/A speed=17.7x    frame=16661 fps=425 q=-0.0 size=N/A time=00:11:34.90 bitrate=N/A speed=17.7x    frame=16861 fps=424 q=-0.0 size=N/A time=00:11:43.24 bitrate=N/A speed=17.7x    frame=17075 fps=424 q=-0.0 size=N/A time=00:11:52.16 bitrate=N/A speed=17.7x    frame=17255 fps=423 q=-0.0 size=N/A time=00:11:59.67 bitrate=N/A speed=17.7x    frame=17462 fps=423 q=-0.0 size=N/A time=00:12:08.31 bitrate=N/A speed=17.6x    frame=17672 fps=423 q=-0.0 size=N/A time=00:12:17.06 bitrate=N/A speed=17.6x    frame=17843 fps=422 q=-0.0 size=N/A time=00:12:24.20 bitrate=N/A speed=17.6x    frame=18032 fps=421 q=-0.0 size=N/A time=00:12:32.08 bitrate=N/A speed=17.6x    frame=18201 fps=420 q=-0.0 size=N/A time=00:12:39.13 bitrate=N/A speed=17.5x    frame=18425 fps=420 q=-0.0 size=N/A time=00:12:48.47 bitrate=N/A speed=17.5x    frame=18614 fps=419 q=-0.0 size=N/A time=00:12:56.35 bitrate=N/A speed=17.5x    frame=18812 fps=419 q=-0.0 size=N/A time=00:13:04.61 bitrate=N/A speed=17.5x    frame=19055 fps=419 q=-0.0 size=N/A time=00:13:14.75 bitrate=N/A speed=17.5x    frame=19263 fps=419 q=-0.0 size=N/A time=00:13:23.42 bitrate=N/A speed=17.5x    frame=19435 fps=418 q=-0.0 size=N/A time=00:13:30.60 bitrate=N/A speed=17.5x    frame=19629 fps=418 q=-0.0 size=N/A time=00:13:38.69 bitrate=N/A speed=17.4x    frame=19860 fps=418 q=-0.0 size=N/A time=00:13:48.32 bitrate=N/A speed=17.4x    frame=20105 fps=419 q=-0.0 size=N/A time=00:13:58.54 bitrate=N/A speed=17.5x    frame=20298 fps=418 q=-0.0 size=N/A time=00:14:06.59 bitrate=N/A speed=17.5x    frame=20515 fps=418 q=-0.0 size=N/A time=00:14:15.64 bitrate=N/A speed=17.4x    frame=20725 fps=418 q=-0.0 size=N/A time=00:14:24.40 bitrate=N/A speed=17.4x    frame=20915 fps=418 q=-0.0 size=N/A time=00:14:32.32 bitrate=N/A speed=17.4x    frame=21105 fps=417 q=-0.0 size=N/A time=00:14:40.25 bitrate=N/A speed=17.4x    frame=21317 fps=417 q=-0.0 size=N/A time=00:14:49.09 bitrate=N/A speed=17.4x    frame=21528 fps=417 q=-0.0 size=N/A time=00:14:57.89 bitrate=N/A speed=17.4x    frame=21753 fps=417 q=-0.0 size=N/A time=00:15:07.28 bitrate=N/A speed=17.4x    frame=22006 fps=418 q=-0.0 size=N/A time=00:15:17.83 bitrate=N/A speed=17.4x    frame=22249 fps=419 q=-0.0 size=N/A time=00:15:27.96 bitrate=N/A speed=17.5x    frame=22458 fps=418 q=-0.0 size=N/A time=00:15:36.68 bitrate=N/A speed=17.5x    frame=22710 fps=419 q=-0.0 size=N/A time=00:15:47.19 bitrate=N/A speed=17.5x    frame=22940 fps=419 q=-0.0 size=N/A time=00:15:56.78 bitrate=N/A speed=17.5x    frame=23127 fps=419 q=-0.0 size=N/A time=00:16:04.58 bitrate=N/A speed=17.5x    frame=23322 fps=418 q=-0.0 size=N/A time=00:16:12.72 bitrate=N/A speed=17.5x    frame=23541 fps=418 q=-0.0 size=N/A time=00:16:21.85 bitrate=N/A speed=17.5x    frame=23775 fps=419 q=-0.0 size=N/A time=00:16:31.61 bitrate=N/A speed=17.5x    frame=23987 fps=419 q=-0.0 size=N/A time=00:16:40.45 bitrate=N/A speed=17.5x    frame=24214 fps=419 q=-0.0 size=N/A time=00:16:49.92 bitrate=N/A speed=17.5x    frame=24425 fps=419 q=-0.0 size=N/A time=00:16:58.72 bitrate=N/A speed=17.5x    frame=24622 fps=419 q=-0.0 size=N/A time=00:17:06.94 bitrate=N/A speed=17.5x    frame=24837 fps=419 q=-0.0 size=N/A time=00:17:15.90 bitrate=N/A speed=17.5x    frame=25043 fps=418 q=-0.0 size=N/A time=00:17:24.50 bitrate=N/A speed=17.5x    frame=25264 fps=418 q=-0.0 size=N/A time=00:17:33.76 bitrate=N/A speed=17.5x    frame=25484 fps=418 q=-0.0 size=N/A time=00:17:42.89 bitrate=N/A speed=17.5x    frame=25719 fps=419 q=-0.0 size=N/A time=00:17:52.69 bitrate=N/A speed=17.5x    frame=25980 fps=420 q=-0.0 size=N/A time=00:18:03.58 bitrate=N/A speed=17.5x    frame=26196 fps=420 q=-0.0 size=N/A time=00:18:12.59 bitrate=N/A speed=17.5x    frame=26440 fps=420 q=-0.0 size=N/A time=00:18:22.76 bitrate=N/A speed=17.5x    frame=26673 fps=420 q=-0.0 size=N/A time=00:18:32.48 bitrate=N/A speed=17.5x    frame=26944 fps=421 q=-0.0 size=N/A time=00:18:43.78 bitrate=N/A speed=17.6x    frame=27129 fps=421 q=-0.0 size=N/A time=00:18:51.50 bitrate=N/A speed=17.5x    frame=27378 fps=421 q=-0.0 size=N/A time=00:19:01.89 bitrate=N/A speed=17.6x    frame=27617 fps=421 q=-0.0 size=N/A time=00:19:11.85 bitrate=N/A speed=17.6x    frame=27826 fps=421 q=-0.0 size=N/A time=00:19:20.57 bitrate=N/A speed=17.6x    frame=28069 fps=422 q=-0.0 size=N/A time=00:19:30.71 bitrate=N/A speed=17.6x    frame=28327 fps=422 q=-0.0 size=N/A time=00:19:41.47 bitrate=N/A speed=17.6x    frame=28562 fps=423 q=-0.0 size=N/A time=00:19:51.27 bitrate=N/A speed=17.6x    frame=28777 fps=423 q=-0.0 size=N/A time=00:20:00.24 bitrate=N/A speed=17.6x    frame=28994 fps=422 q=-0.0 size=N/A time=00:20:09.29 bitrate=N/A speed=17.6x    frame=29197 fps=422 q=-0.0 size=N/A time=00:20:17.75 bitrate=N/A speed=17.6x    frame=29429 fps=422 q=-0.0 size=N/A time=00:20:27.43 bitrate=N/A speed=17.6x    frame=29626 fps=422 q=-0.0 size=N/A time=00:20:35.65 bitrate=N/A speed=17.6x    frame=29760 fps=421 q=-0.0 size=N/A time=00:20:41.24 bitrate=N/A speed=17.6x    frame=29946 fps=421 q=-0.0 size=N/A time=00:20:48.99 bitrate=N/A speed=17.5x    frame=30163 fps=421 q=-0.0 size=N/A time=00:20:58.04 bitrate=N/A speed=17.5x    frame=30347 fps=420 q=-0.0 size=N/A time=00:21:05.72 bitrate=N/A speed=17.5x    frame=30453 fps=419 q=-0.0 size=N/A time=00:21:10.14 bitrate=N/A speed=17.5x    frame=30616 fps=418 q=-0.0 size=N/A time=00:21:16.94 bitrate=N/A speed=17.4x    frame=30804 fps=417 q=-0.0 size=N/A time=00:21:24.78 bitrate=N/A speed=17.4x    frame=31033 fps=418 q=-0.0 size=N/A time=00:21:34.33 bitrate=N/A speed=17.4x    frame=31307 fps=418 q=-0.0 size=N/A time=00:21:45.76 bitrate=N/A speed=17.5x    frame=31586 fps=419 q=-0.0 size=N/A time=00:21:57.39 bitrate=N/A speed=17.5x    frame=31853 fps=420 q=-0.0 size=N/A time=00:22:08.53 bitrate=N/A speed=17.5x    frame=32107 fps=420 q=-0.0 size=N/A time=00:22:19.12 bitrate=N/A speed=17.5x    frame=32378 fps=421 q=-0.0 size=N/A time=00:22:30.43 bitrate=N/A speed=17.6x    frame=32648 fps=422 q=-0.0 size=N/A time=00:22:41.69 bitrate=N/A speed=17.6x    frame=32892 fps=422 q=-0.0 size=N/A time=00:22:51.87 bitrate=N/A speed=17.6x    frame=33157 fps=423 q=-0.0 size=N/A time=00:23:02.92 bitrate=N/A speed=17.6x    frame=33437 fps=423 q=-0.0 size=N/A time=00:23:14.60 bitrate=N/A speed=17.7x    frame=33698 fps=424 q=-0.0 size=N/A time=00:23:25.48 bitrate=N/A speed=17.7x    frame=33963 fps=425 q=-0.0 size=N/A time=00:23:36.54 bitrate=N/A speed=17.7x    frame=34215 fps=425 q=-0.0 size=N/A time=00:23:47.05 bitrate=N/A speed=17.7x    frame=34455 fps=425 q=-0.0 size=N/A time=00:23:57.06 bitrate=N/A speed=17.7x    [Parsed_psnr_10 @ 0000023c122f72c0] PSNR y:47.569022 u:49.554283 v:49.635950 average:48.145294 min:37.660627 max:inf
[out#0/null @ 0000023c0f9e4780] video:14902KiB audio:271244KiB subtitle:0KiB other streams:0KiB global headers:0KiB muxing overhead: unknown
frame=34681 fps=426 q=-0.0 Lsize=N/A time=00:24:06.48 bitrate=N/A speed=17.7x    
